<?xml version="1.0" encoding="UTF-8" standalone="no"?>
<svg width="43px" height="64px" viewBox="0 0 43 64" version="1.1" xmlns="http://www.w3.org/2000/svg" xmlns:xlink="http://www.w3.org/1999/xlink" xmlns:sketch="http://www.bohemiancoding.com/sketch/ns">
    <!-- Generator: Sketch 3.3 (11970) - http://www.bohemiancoding.com/sketch -->
    <title>Shape</title>
    <desc>Created with Sketch.</desc>
    <defs></defs>
    <g id="V5" stroke="none" stroke-width="1" fill="none" fill-rule="evenodd" sketch:type="MSPage">
        <g id="Desktop-HD" sketch:type="MSArtboardGroup" transform="translate(-218.000000, -3852.000000)" fill="#40B8C7">
            <g id="Carte-cadeau" sketch:type="MSLayerGroup" transform="translate(218.000000, 3849.500000)">
                <g id="picto" transform="translate(0.000000, 3.000000)" sketch:type="MSShapeGroup">
                    <path d="M0.327461538,20.5545789 L19.5947692,20.5545789 L19.5947692,39.1296316 L0.327461538,39.1296316 L0.327461538,20.5545789 L0.327461538,20.5545789 Z M23.6268462,20.5545789 L23.6268462,39.1296316 L42.3450769,39.1296316 L42.3450769,20.5545789 L23.6268462,20.5545789 L23.6268462,20.5545789 Z M23.6268462,62.6717368 L42.3450769,62.6717368 L42.3450769,43.1782105 L23.6268462,43.1782105 L23.6268462,62.6717368 L23.6268462,62.6717368 Z M0.327461538,62.6717368 L19.5947692,62.6717368 L19.5947692,43.1782105 L0.327461538,43.1782105 L0.327461538,62.6717368 L0.327461538,62.6717368 Z M31.777,18.5385789 L22.79,18.5385789 L22.79,9.52957895 L22.833,9.52957895 C23.2464615,5.39810526 26.7228462,2.17184211 30.9533846,2.17184211 C35.4650769,2.17184211 39.1167692,5.83247368 39.1167692,10.3552105 C39.1167692,14.5994211 35.9016923,18.081 31.777,18.4987895 L31.777,18.5385789 L31.777,18.5385789 Z M31.4429231,15.1564737 C33.8740769,14.9144211 35.7693846,12.8586316 35.7693846,10.3552105 C35.7693846,7.69263158 33.6127692,5.53073684 30.9566923,5.53073684 C28.4626923,5.53073684 26.4086154,7.43068421 26.1638462,9.86778947 L26.1406923,9.86778947 L26.1406923,15.183 L31.4429231,15.183 L31.4429231,15.1564737 L31.4429231,15.1564737 Z M20.3853077,8.33921053 L20.4349231,8.33921053 L20.4349231,18.5418947 L10.2538462,18.5418947 L10.2538462,18.4921579 C5.58338462,18.0213158 1.93830769,14.0722105 1.93830769,9.26763158 C1.93830769,4.14805263 6.07623077,0 11.1866154,0 C15.9761538,0.00331578947 19.9189231,3.65731579 20.3853077,8.33921053 L20.3853077,8.33921053 Z M16.6376923,8.72052632 L16.6112308,8.72052632 C16.34,5.95847368 14.0113846,3.80652632 11.1866154,3.80652632 C8.17330769,3.80652632 5.73223077,6.25689474 5.73223077,9.27094737 C5.73223077,12.1026316 7.88223077,14.4336316 10.6342308,14.7088421 L10.6342308,14.7386842 L16.6376923,14.7386842 L16.6376923,8.72052632 L16.6376923,8.72052632 Z" id="Shape"></path>
                </g>
            </g>
        </g>
    </g>
</svg>