<?xml version="1.0" encoding="utf-8"?>
<!-- Generator: Adobe Illustrator 17.0.0, SVG Export Plug-In . SVG Version: 6.00 Build 0)  -->
<!DOCTYPE svg PUBLIC "-//W3C//DTD SVG 1.1//EN" "http://www.w3.org/Graphics/SVG/1.1/DTD/svg11.dtd">
<svg version="1.1" id="Calque_1" xmlns="http://www.w3.org/2000/svg" xmlns:xlink="http://www.w3.org/1999/xlink" x="0px" y="0px"
	 width="555.333px" height="132px" viewBox="0 0 555.333 132" enable-background="new 0 0 555.333 132" xml:space="preserve">
<g>
	<path fill="#FFFFFF" d="M82.942,50.536c-5.381,0-9.946,1.28-13.695,3.837c-3.75,2.56-6.285,5.954-7.608,10.188
		c-1.588-4.145-4.103-7.52-7.542-10.123c-3.441-2.6-7.036-3.903-10.785-3.903c-3.75,0-7.366,0.972-10.849,2.91
		c-3.486,1.942-6.11,4.235-7.873,6.882V51.99h-4.234v59.542h4.234V71.839c0-4.674,1.763-8.775,5.292-12.305
		c3.527-3.527,7.675-5.292,12.438-5.292s8.819,1.744,12.173,5.227c3.352,3.486,5.029,7.608,5.029,12.371v39.695h4.234V71.839
		c0-4.674,1.83-8.775,5.491-12.305c3.659-3.527,7.85-5.292,12.571-5.292c4.717,0,8.752,1.7,12.107,5.094
		c3.35,3.397,5.027,7.654,5.027,12.769v39.429h4.234v-39.43c0-6.616-2.029-11.863-6.086-15.746
		C93.041,52.479,88.322,50.536,82.942,50.536"/>
	<path fill="#FFFFFF" d="M449.183,99.757c-4.677-5.292-7.013-11.464-7.013-18.523c0-7.055,2.712-13.298,8.137-18.722
		c5.425-5.427,11.645-8.138,18.658-8.138s13.253,2.382,18.722,7.145L449.183,99.757z M470.089,50.669
		c-9.086,0-16.717,3.066-22.89,9.195c-6.176,6.134-9.262,13.387-9.262,21.766c0,8.382,3.11,15.726,9.328,22.031
		c6.218,6.307,13.517,9.461,21.899,9.461h1.19c8.91,0,16.495-3.441,22.759-10.321v-6.749c-2.735,4.059-6.198,7.301-10.387,9.726
		c-4.19,2.428-8.932,3.639-14.224,3.639s-10.806-2.293-16.539-6.882l41.546-41.017C486.98,54.287,479.173,50.669,470.089,50.669"/>
	<path fill="#FFFFFF" d="M536.047,84.806c-1.984-2.732-4.388-4.982-7.211-6.747c-2.824-1.764-5.623-3.417-8.402-4.963
		c-2.779-1.541-5.16-3.241-7.145-5.094c-1.984-1.852-2.977-3.88-2.977-6.086c0-2.204,0.882-4.056,2.646-5.558
		c1.766-1.499,3.794-2.25,6.087-2.25c4.321,0,7.893,2.117,10.717,6.351v-5.424c-2.824-3.087-6.218-4.632-10.188-4.632
		c-3.969,0-7.211,1.082-9.725,3.241c-2.514,2.164-3.772,4.81-3.772,7.94c0,3.132,0.993,5.867,2.977,8.204
		c1.986,2.337,4.367,4.323,7.145,5.953c2.779,1.634,5.578,3.288,8.402,4.963c2.823,1.677,5.225,3.705,7.211,6.086
		c1.984,2.382,2.977,5.316,2.977,8.8c0,3.486-1.567,6.638-4.698,9.459c-3.132,2.826-6.991,4.234-11.578,4.234
		c-7.409,0-12.791-3.705-16.143-11.114v6.351c1.411,2.56,3.639,4.612,6.682,6.153c3.044,1.543,6.329,2.315,9.857,2.315
		c5.558,0,10.299-1.828,14.225-5.491c3.923-3.658,5.887-8.09,5.887-13.298C539.024,90.674,538.031,87.541,536.047,84.806"/>
	<path fill="#FFFFFF" d="M404.462,50.536c-5.381,0-9.946,1.28-13.695,3.837c-3.751,2.56-6.285,5.954-7.608,10.188
		c-1.588-4.145-4.103-7.52-7.542-10.123c-3.441-2.6-7.036-3.903-10.785-3.903c-3.75,0-7.366,0.972-10.85,2.91
		c-3.486,1.942-6.109,4.235-7.872,6.882V51.99h-4.234v59.542h4.234V71.839c0-4.674,1.763-8.775,5.292-12.305
		c3.527-3.527,7.675-5.292,12.438-5.292s8.819,1.744,12.173,5.227c3.352,3.486,5.029,7.608,5.029,12.371v39.695h4.234V71.839
		c0-4.674,1.83-8.775,5.491-12.305c3.659-3.527,7.85-5.292,12.571-5.292c4.717,0,8.752,1.7,12.107,5.094
		c3.35,3.397,5.027,7.654,5.027,12.769v39.429h4.234v-39.43c0-6.616-2.029-11.863-6.086-15.746
		C414.561,52.479,409.842,50.536,404.462,50.536"/>
	<path fill="#FFFFFF" d="M314.091,101.147c-5.292,5.425-11.665,8.137-19.12,8.137s-13.893-2.712-19.318-8.137
		s-8.137-11.843-8.137-19.252s2.712-13.87,8.137-19.384c5.425-5.513,11.843-8.27,19.252-8.27s13.782,2.735,19.12,8.203
		c5.336,5.472,8.006,11.932,8.006,19.385C322.031,89.284,319.384,95.722,314.091,101.147 M321.766,66.943
		c-2.03-4.94-5.623-8.908-10.783-11.909c-5.161-2.998-10.564-4.498-16.21-4.498c-8.646,0-16.055,3.066-22.228,9.195
		c-6.176,6.132-9.262,13.476-9.262,22.031c0,8.557,3.087,15.901,9.262,22.03c6.173,6.132,13.582,9.195,22.228,9.195
		c5.645,0,10.938-1.455,15.879-4.365c4.938-2.912,8.644-6.882,11.114-11.909v14.819H326v-59.54h-4.234V66.943z"/>
	<path fill="#FFFFFF" d="M238.608,101.147c-5.425,5.425-11.865,8.137-19.318,8.137c-7.456,0-13.827-2.712-19.12-8.137
		c-5.292-5.425-7.939-11.862-7.939-19.318c0-7.453,2.667-13.913,8.006-19.384c5.336-5.469,11.709-8.204,19.12-8.204
		c7.409,0,13.826,2.758,19.251,8.27c5.425,5.514,8.137,11.974,8.137,19.385C246.745,89.305,244.033,95.722,238.608,101.147
		 M246.481,12.297v54.249c-2.382-4.849-6.109-8.733-11.181-11.643c-5.074-2.912-10.343-4.367-15.812-4.367
		c-8.732,0-16.164,3.066-22.295,9.195c-6.132,6.132-9.195,13.476-9.195,22.031c0,8.557,3.063,15.901,9.195,22.03
		c6.131,6.132,13.563,9.195,22.295,9.195c5.292,0,10.454-1.435,15.482-4.3c5.027-2.865,8.864-6.726,11.511-11.578v14.422h4.234
		V12.297H246.481z"/>
	<path fill="#F18A81" d="M168.428,81.729c0,5.804-2.06,10.815-6.179,15.037c-4.12,4.222-9.08,6.333-14.881,6.333
		c-5.803,0-10.814-2.111-15.036-6.333s-6.333-9.219-6.333-14.986c0-5.766,2.111-10.795,6.333-15.087
		c4.222-4.291,9.217-6.437,14.985-6.437c5.766,0,10.725,2.129,14.88,6.384C166.351,70.899,168.428,75.928,168.428,81.729
		 M169.751,59.523c-6.191-6.189-13.67-9.283-22.438-9.283c-8.773,0-16.275,3.094-22.507,9.283
		c-6.233,6.191-9.348,13.514-9.348,21.973c0,8.462,3.072,15.874,9.216,22.24c6.144,6.368,13.489,9.551,22.039,9.551h1.201
		c8.636,0,15.981-3.161,22.039-9.484c6.053-6.322,9.082-13.735,9.082-22.24C179.034,73.06,175.938,65.713,169.751,59.523"/>
</g>
</svg>
