<?xml version="1.0" encoding="UTF-8"?>
<svg width="146px" height="29px" viewBox="0 0 146 29" version="1.1" xmlns="http://www.w3.org/2000/svg" xmlns:xlink="http://www.w3.org/1999/xlink" xmlns:sketch="http://www.bohemiancoding.com/sketch/ns">
    <!-- Generator: Sketch 3.3 (11970) - http://www.bohemiancoding.com/sketch -->
    <title>logo</title>
    <desc>Created with Sketch.</desc>
    <defs></defs>
    <g id="Page-1" stroke="none" stroke-width="1" fill="none" fill-rule="evenodd" sketch:type="MSPage">
        <g id="logo" sketch:type="MSLayerGroup" fill="#575756">
            <g id="Page-1" sketch:type="MSShapeGroup">
                <g id="logo">
                    <g id="Group">
                        <path d="M17.6721769,10.9563137 C16.1613577,10.9563137 14.8796462,11.3202353 13.8270423,12.0472255 C12.7741577,12.7750686 12.0624077,13.7400294 11.69095,14.9438137 C11.2450885,13.7653333 10.5389538,12.8057745 9.57338846,12.0657059 C8.60726154,11.3264902 7.59789615,10.9560294 6.54529231,10.9560294 C5.49240769,10.9560294 4.47714615,11.2323823 3.49922692,11.7833823 C2.52046538,12.3355196 1.78372692,12.987451 1.28873077,13.7400294 L1.28873077,11.3697059 L0.0999538462,11.3697059 L0.0999538462,28.2983137 L1.28873077,28.2983137 L1.28873077,17.013049 C1.28873077,15.6841667 1.78372692,14.5181961 2.77456154,13.5145686 C3.76483462,12.5117941 4.92946538,12.0099804 6.26676923,12.0099804 C7.60407308,12.0099804 8.74287308,12.5058236 9.68457308,13.4960883 C10.6257115,14.4872059 11.0965615,15.659147 11.0965615,17.0133333 L11.0965615,28.2991667 L12.2853385,28.2991667 L12.2853385,17.013049 C12.2853385,15.6841667 12.7991462,14.5181961 13.8270423,13.5145686 C14.8543769,12.5117941 16.0310808,12.0099804 17.3565923,12.0099804 C18.6809808,12.0099804 19.8138846,12.4933137 20.7558654,13.4582745 C21.6964423,14.4240883 22.1672923,15.6344117 22.1672923,17.0886764 L22.1672923,28.2988823 L23.3560692,28.2988823 L23.3560692,17.0883922 C23.3560692,15.2073725 22.7863885,13.7155784 21.6473077,12.6115883 C20.5076654,11.5087353 19.1827154,10.9563137 17.6721769,10.9563137" id="Shape"></path>
                        <path d="M120.501381,24.9505196 C119.188223,23.4459314 118.532346,21.691147 118.532346,19.6841764 C118.532346,17.6783431 119.293792,15.9033725 120.816965,14.3612549 C122.340138,12.8182843 124.086523,12.0475098 126.055558,12.0475098 C128.024592,12.0475098 129.776592,12.7247451 131.312119,14.0789314 L120.501381,24.9505196 L120.501381,24.9505196 Z M126.371142,10.9941275 C123.820073,10.9941275 121.677523,11.8658333 119.944335,13.6083922 C118.210304,15.3523725 117.34385,17.4145 117.34385,19.7967647 C117.34385,22.1798823 118.217042,24.2678823 119.962865,26.0604804 C121.708688,27.853647 123.758023,28.7503725 126.111431,28.7503725 L126.445546,28.7503725 C128.9472,28.7503725 131.076835,27.772049 132.835573,25.8159706 L132.835573,23.8971372 C132.067669,25.0511667 131.095365,25.9729117 129.919223,26.6623725 C128.7428,27.3526863 127.411392,27.6969902 125.925562,27.6969902 C124.439731,27.6969902 122.891569,27.0450588 121.281919,25.7403431 L132.946758,14.078647 C131.113615,12.0227745 128.92165,10.9941275 126.371142,10.9941275 L126.371142,10.9941275 L126.371142,10.9941275 Z" id="Shape"></path>
                        <path d="M144.890119,20.6997451 C144.333073,19.923 143.658104,19.2832941 142.865492,18.7814804 C142.0726,18.279951 141.286727,17.8099804 140.506469,17.3704314 C139.726212,16.9323039 139.0577,16.4489706 138.500373,15.9221372 C137.943327,15.3955883 137.664523,14.819 137.664523,14.1918039 C137.664523,13.5651764 137.912162,13.0386275 138.407438,12.6115883 C138.903277,12.185402 139.472677,11.9718823 140.116481,11.9718823 C141.329685,11.9718823 142.332592,12.5737745 143.125485,13.7775588 L143.125485,12.2354412 C142.332592,11.3577647 141.379662,10.9185 140.265008,10.9185 C139.150635,10.9185 138.240381,11.2261275 137.534527,11.8399608 C136.828673,12.4552157 136.475465,13.2075098 136.475465,14.0974117 C136.475465,14.9878823 136.754269,15.7654804 137.311315,16.4299216 C137.868923,17.0943628 138.537435,17.6590098 139.317412,18.1224412 C140.097669,18.5870098 140.883542,19.0572647 141.676435,19.5334902 C142.469046,20.0102843 143.143454,20.5868725 143.701062,21.2638236 C144.258108,21.9410588 144.536912,22.7752353 144.536912,23.7657843 C144.536912,24.756902 144.096946,25.6530588 143.217858,26.4551078 C142.338488,27.2585784 141.255,27.6588922 139.967112,27.6588922 C137.886892,27.6588922 136.375792,26.6055098 135.434654,24.4990294 L135.434654,26.3047059 C135.830819,27.032549 136.456373,27.6159608 137.310754,28.0540883 C138.165415,28.4927843 139.087742,28.7122745 140.078296,28.7122745 C141.638812,28.7122745 142.969938,28.192549 144.072238,27.1511078 C145.173696,26.1110883 145.725127,24.8510098 145.725127,23.3703039 C145.725969,22.368098 145.447165,21.4773431 144.890119,20.6997451" id="Shape"></path>
                        <path d="M107.9451,10.9563137 C106.434281,10.9563137 105.152569,11.3202353 104.099965,12.0472255 C103.0468,12.7750686 102.335331,13.7400294 101.963873,14.9438137 C101.518012,13.7653333 100.811877,12.8057745 99.8463115,12.0657059 C98.8801846,11.3264902 97.8708192,10.9560294 96.8182154,10.9560294 C95.7653308,10.9560294 94.7500692,11.2323823 93.7718692,11.7833823 C92.7931077,12.3355196 92.05665,12.987451 91.5616538,13.7400294 L91.5616538,11.3697059 L90.3728769,11.3697059 L90.3728769,28.2983137 L91.5616538,28.2983137 L91.5616538,17.013049 C91.5616538,15.6841667 92.05665,14.5181961 93.0474846,13.5145686 C94.0377577,12.5117941 95.2023885,12.0099804 96.5396923,12.0099804 C97.8769962,12.0099804 99.0157962,12.5058236 99.9574962,13.4960883 C100.898635,14.4872059 101.369485,15.659147 101.369485,17.0133333 L101.369485,28.2991667 L102.558262,28.2991667 L102.558262,17.013049 C102.558262,15.6841667 103.072069,14.5181961 104.099965,13.5145686 C105.1273,12.5117941 106.304004,12.0099804 107.629515,12.0099804 C108.953904,12.0099804 110.086808,12.4933137 111.028788,13.4582745 C111.969365,14.4240883 112.440215,15.6344117 112.440215,17.0886764 L112.440215,28.2988823 L113.628992,28.2988823 L113.628992,17.0883922 C113.628992,15.2073725 113.059312,13.7155784 111.920231,12.6115883 C110.780588,11.5087353 109.455638,10.9563137 107.9451,10.9563137" id="Shape"></path>
                        <path d="M82.5717038,25.3457157 C81.0858731,26.8881177 79.2965308,27.6591764 77.2033962,27.6591764 C75.1102615,27.6591764 73.3026692,26.8881177 71.7794962,25.3457157 C70.2563231,23.8033137 69.4948769,21.9785883 69.4948769,19.8721078 C69.4948769,17.7656275 70.2563231,15.9286764 71.7794962,14.3609706 C73.3026692,12.793549 75.1046462,12.0096961 77.1848654,12.0096961 C79.2650846,12.0096961 81.0544269,12.7872941 82.5531731,14.3419216 C84.0513577,15.8976863 84.8010115,17.734353 84.8010115,19.8533431 C84.8010115,21.972902 84.0578154,23.8033137 82.5717038,25.3457157 L82.5717038,25.3457157 L82.5717038,25.3457157 Z M84.7266077,15.621049 C84.1566462,14.2165392 83.1478423,13.0883823 81.6990731,12.2351569 C80.2500231,11.3827843 78.7330269,10.9563137 77.1478038,10.9563137 C74.7202731,10.9563137 72.6400538,11.8280196 70.9068654,13.5705784 C69.1728346,15.3139902 68.3063808,17.4019902 68.3063808,19.8342941 C68.3063808,22.2671667 69.1731154,24.3551667 70.9068654,26.0977255 C72.6400538,27.8411372 74.7202731,28.7119902 77.1478038,28.7119902 C78.7327462,28.7119902 80.2188577,28.2983137 81.6061385,27.4709608 C82.9925769,26.6430392 84.0331077,25.5143137 84.7266077,24.0850686 L84.7266077,28.2983137 L85.9153846,28.2983137 L85.9153846,11.3702745 L84.7266077,11.3702745 L84.7266077,15.621049 L84.7266077,15.621049 Z" id="Shape"></path>
                        <path d="M61.3784,25.3457157 C59.8552269,26.8881177 58.0470731,27.6591764 55.9545,27.6591764 C53.8610846,27.6591764 52.0723038,26.8881177 50.5861923,25.3457157 C49.1003615,23.8033137 48.3571654,21.9731863 48.3571654,19.8533431 C48.3571654,17.734353 49.1059769,15.8976863 50.6050038,14.3422059 C52.1031885,12.7872941 53.8925308,12.0096961 55.9733115,12.0096961 C58.0535308,12.0096961 59.8552269,12.7938333 61.3784,14.3609706 C62.9015731,15.9286764 63.6630192,17.7653431 63.6630192,19.8723922 C63.6630192,21.9788725 62.9015731,23.8033137 61.3784,25.3457157 L61.3784,25.3457157 L61.3784,25.3457157 Z M63.5888962,0.0844411765 L63.5888962,15.5081764 C62.9201038,14.1295392 61.8736769,13.0252647 60.4496154,12.1979117 C59.0249923,11.3699902 57.5456192,10.9563137 56.0100923,10.9563137 C53.5584154,10.9563137 51.4717385,11.8280196 49.7503423,13.5705784 C48.0286654,15.3139902 47.1686692,17.4019902 47.1686692,19.8342941 C47.1686692,22.2671667 48.0286654,24.3551667 49.7503423,26.0977255 C51.4717385,27.8411372 53.5584154,28.7119902 56.0100923,28.7119902 C57.4959231,28.7119902 58.9452538,28.304 60.3569615,27.4894412 C61.7683885,26.6748823 62.8457,25.577147 63.5888962,24.1976569 L63.5888962,28.2980294 L64.7776731,28.2980294 L64.7776731,0.0844411765 L63.5888962,0.0844411765 L63.5888962,0.0844411765 Z" id="Shape"></path>
                        <path d="M41.6740154,19.8249117 C41.6740154,21.4750686 41.0956308,22.8997647 39.9391423,24.1001372 C38.7823731,25.3005098 37.3897577,25.9006961 35.7610154,25.9006961 C34.1317115,25.9006961 32.7247769,25.3005098 31.5393692,24.1001372 C30.3539615,22.8997647 29.7612577,21.479049 29.7612577,19.8394117 C29.7612577,18.2000588 30.3539615,16.7702451 31.5393692,15.5499706 C32.7247769,14.3299804 34.1272192,13.7198431 35.7466962,13.7198431 C37.3656115,13.7198431 38.7579462,14.325147 39.9245423,15.534902 C41.0908577,16.7457941 41.6740154,18.1756078 41.6740154,19.8249117 M42.0454731,13.5114412 C40.3072308,11.7518236 38.2073577,10.8721569 35.7455731,10.8721569 C33.2823846,10.8721569 31.1760538,11.7518236 29.4263,13.5114412 C27.6762654,15.2716275 26.8016692,17.3536569 26.8016692,19.7586667 C26.8016692,22.1645294 27.6641923,24.2718628 29.3892385,26.0818039 C31.1142846,27.8923137 33.1765346,28.7972843 35.5771115,28.7972843 L35.9143154,28.7972843 C38.3390385,28.7972843 40.4012885,27.8985686 42.1021885,26.100853 C43.8016846,24.3034216 44.6521346,22.1958039 44.6521346,19.7777157 C44.6518538,17.3601961 43.7825923,15.2713431 42.0454731,13.5114412" id="Shape"></path>
                    </g>
                </g>
            </g>
        </g>
    </g>
</svg>