<?xml version="1.0" encoding="UTF-8" standalone="no"?>
<svg width="20px" height="23px" viewBox="0 0 20 23" version="1.1" xmlns="http://www.w3.org/2000/svg" xmlns:xlink="http://www.w3.org/1999/xlink" xmlns:sketch="http://www.bohemiancoding.com/sketch/ns">
    <!-- Generator: Sketch 3.3 (11970) - http://www.bohemiancoding.com/sketch -->
    <title>viadeo</title>
    <desc>Created with Sketch.</desc>
    <defs></defs>
    <g id="reotuches" stroke="none" stroke-width="1" fill="none" fill-rule="evenodd" sketch:type="MSPage">
        <g id="Desktop-HD" sketch:type="MSArtboardGroup" transform="translate(-90.000000, -55.000000)" fill="#FFFFFF">
            <g id="viadeo" sketch:type="MSLayerGroup" transform="translate(90.000000, 55.000000)">
                <g id="Shape" sketch:type="MSShapeGroup">
                    <path d="M15.832381,11.5547619 C15.817381,11.5169048 15.7969048,11.4814286 15.7783333,11.4440476 C15.5678571,11.5528571 15.3692857,11.6645238 15.162619,11.7592857 C14.9616667,11.8519048 14.7552381,11.9347619 14.5461905,12.007619 C14.3333333,12.0816667 14.1142857,12.1383333 13.8995238,12.2016667 C13.9011905,12.2211905 13.9,12.2333333 13.9033333,12.2445238 C13.9121429,12.2730952 13.9216667,12.3016667 13.9328571,12.3292857 C14.2328571,13.0861905 14.3652381,13.875 14.375,14.6854762 C14.3830952,15.3611905 14.2957143,16.0261905 14.097381,16.6735714 C13.7990476,17.6469048 13.3178571,18.5188095 12.6085714,19.2521429 C11.5721429,20.322619 10.297619,20.8988095 8.81880952,21.0330952 C8.68214286,21.0457143 8.54452381,21.0440476 8.39571429,21.0492857 C8.40238095,21.0157143 8.40142857,21.0083333 8.4047619,21.0059524 C8.48142857,20.9483333 8.55880952,20.8919048 8.6352381,20.8338095 C10.1811905,19.66 11.3985714,18.212381 12.2590476,16.4714286 C12.9745238,15.0242857 13.3380952,13.4892857 13.3742857,11.8757143 C13.3916667,11.0871429 13.322619,10.305 13.1861905,9.52952381 C13.0314286,8.64738095 12.7883333,7.78833333 12.4754762,6.94928571 C12.4657143,6.92333333 12.4361905,6.8602381 12.4154762,6.82285714 C12.3966667,6.68404762 12.3907143,6.64214286 12.3864286,6.61619048 C12.3864286,6.59214286 12.385,6.54857143 12.3840476,6.53952381 C12.3069048,5.81071429 12.1747619,5.09261905 11.9745238,4.38761905 C11.702381,3.4302381 11.3164286,2.52333333 10.7757143,1.68571429 C10.4030952,1.10857143 9.97333333,0.579285714 9.44952381,0.130714286 C9.4002381,0.0888095238 9.34809524,0.0492857143 9.28619048,0 C9.28428571,0.0326190476 9.27690476,0.0521428571 9.28357143,0.0645238095 C9.32047619,0.133095238 9.36071429,0.199761905 9.3997619,0.267380952 C10.3102381,1.835 11.1097619,3.45761905 11.7928571,5.13690476 C11.9804762,5.59738095 12.1516667,6.06452381 12.3307143,6.52857143 L12.3835714,6.62571429 C12.3880952,6.65309524 12.3945238,6.70095238 12.412381,6.83214286 C12.4219048,7.07690476 12.4352381,7.32833333 12.4397619,7.54547619 C12.4657143,8.81833333 12.4321429,10.0888095 12.3021429,11.3561905 C12.242381,11.9414286 12.1678571,12.5242857 12.0688095,13.1030952 C11.9447619,13.8307143 11.7854762,14.5507143 11.5778571,15.2592857 C11.322381,16.1304762 11.0016667,16.9754762 10.5683333,17.7752381 C10.1828571,18.4861905 9.7202381,19.1404762 9.13738095,19.7047619 C8.60142857,20.2238095 7.99261905,20.632381 7.30285714,20.9190476 C7.22928571,20.9497619 7.15952381,20.9585714 7.07761905,20.942619 C6.13595238,20.7588095 5.28833333,20.3709524 4.53428571,19.7788095 C3.88261905,19.267381 3.37738095,18.6330952 2.98309524,17.907619 C2.56238095,17.1333333 2.31047619,16.3064286 2.22333333,15.4309524 C2.17214286,14.9157143 2.18333333,14.4009524 2.245,13.8861905 C2.32071429,13.2561905 2.4802381,12.6502381 2.73809524,12.0707143 C3.12214286,11.2071429 3.68404762,10.4742857 4.3852381,9.84547619 C4.92642857,9.3602381 5.53119048,8.97761905 6.21285714,8.7197619 C6.65261905,8.55357143 7.10619048,8.44857143 7.57309524,8.39333333 C7.98619048,8.3447619 8.4002381,8.34261905 8.81309524,8.375 C9.34119048,8.41642857 9.85595238,8.53071429 10.3514286,8.72333333 C10.3942857,8.74 10.4395238,8.75071429 10.502619,8.7702381 C10.5461905,8.4247619 10.6140476,8.09761905 10.7159524,7.77809524 C10.8180952,7.45857143 10.9554762,7.15285714 11.097619,6.84880952 C11.02,6.78761905 10.9354762,6.77404762 10.8571429,6.74880952 C10.1857143,6.53285714 9.49690476,6.4152381 8.79261905,6.37547619 C8.03952381,6.33261905 7.29404762,6.38333333 6.555,6.5302381 C5.6697619,6.70619048 4.84333333,7.03261905 4.07785714,7.51166667 C3.34928571,7.96785714 2.72,8.53714286 2.16404762,9.1902381 C0.930714286,10.6390476 0.272857143,12.3171429 0.171428571,14.2140476 C0.142380952,14.7595238 0.160714286,15.305 0.229761905,15.8485714 C0.326904762,16.6154762 0.520952381,17.3547619 0.827857143,18.0640476 C1.32380952,19.2102381 2.04738095,20.1947619 2.96428571,21.0378571 C3.64285714,21.6619048 4.41571429,22.1380952 5.27690476,22.4669048 C6.07928571,22.7738095 6.91380952,22.9333333 7.76904762,22.9754762 C8.56261905,23.0142857 9.35142857,22.9697619 10.1319048,22.8054762 C11.1859524,22.5840476 12.1502381,22.1630952 13.0169048,21.5214286 C13.6930952,21.0207143 14.2664286,20.4188095 14.7671429,19.7459524 C15.7616667,18.4095238 16.3002381,16.9059524 16.3947619,15.2445238 C16.4333333,14.5654762 16.4011905,13.8890476 16.2897619,13.2171429 C16.1935714,12.6469048 16.047619,12.0911905 15.832381,11.5547619 L15.832381,11.5547619 Z"></path>
                    <path d="M19.7119048,2.575 C19.5378571,1.92928571 19.2930952,1.31238095 18.9578571,0.732857143 C18.91,0.65047619 18.8569048,0.570952381 18.7957143,0.473333333 C18.7497619,0.557142857 18.7116667,0.623333333 18.6761905,0.690714286 C18.4445238,1.12880952 18.1554762,1.5247619 17.7988095,1.86952381 C17.2578571,2.39166667 16.6340476,2.77 15.8988095,2.9502381 C15.8347619,2.96595238 15.7709524,2.98333333 15.707619,3.00190476 C15.1654762,3.16071429 14.6411905,3.36285714 14.1504762,3.64738095 C13.8142857,3.84261905 13.5257143,4.09 13.287619,4.39857143 C12.8447619,4.97214286 12.6307143,5.61928571 12.662619,6.34309524 C12.6888095,6.93428571 12.8578571,7.48690476 13.1435714,8.00428571 C13.157619,8.02952381 13.1778571,8.05119048 13.2066667,8.0897619 C15.5328571,7.51952381 17.2804762,6.18880952 18.4885714,4.08380952 C18.4840476,4.1547619 18.4861905,4.18904762 18.4790476,4.22142857 C18.4388095,4.40380952 18.3747619,4.57785714 18.292619,4.74547619 C18.1111905,5.1147619 17.8671429,5.44047619 17.5947619,5.74619048 C17.122381,6.27714286 16.5852381,6.73761905 16.0211905,7.16738095 C15.3380952,7.68785714 14.6221429,8.15928571 13.8795238,8.59 C13.825,8.62166667 13.76,8.64214286 13.7188095,8.71119048 C13.8195238,8.80142857 13.915,8.89190476 14.0157143,8.97642857 C14.3959524,9.2952381 14.8109524,9.55357143 15.285,9.71 C15.7319048,9.85714286 16.1866667,9.89738095 16.6514286,9.81619048 C17.2157143,9.71809524 17.7069048,9.46857143 18.1378571,9.09642857 C18.5559524,8.73595238 18.885,8.30214286 19.162381,7.82809524 C19.3230952,7.55380952 19.472619,7.27261905 19.5759524,6.97071429 C19.7914286,6.34309524 19.917381,5.69619048 19.9578571,5.0352381 C20.0092857,4.20285714 19.9290476,3.38142857 19.7119048,2.575 L19.7119048,2.575 Z"></path>
                </g>
            </g>
        </g>
    </g>
</svg>